<svg xmlns="http://www.w3.org/2000/svg" viewBox="0 0 400 866" role="img" aria-label="90Plus - Live Scores">
  <defs>
    <clipPath id="clip1"><rect width="400" height="866" rx="46"/></clipPath>
    <linearGradient id="bg1" x1="0" y1="0" x2="0" y2="1">
      <stop offset="0" stop-color="#12071f"/>
      <stop offset="1" stop-color="#040109"/>
    </linearGradient>
    <linearGradient id="acc1" x1="0" y1="0" x2="1" y2="1">
      <stop offset="0" stop-color="#7c3aed"/>
      <stop offset="1" stop-color="#a78bfa"/>
    </linearGradient>
    <radialGradient id="glow1" cx="0.5" cy="0.1" r="0.85">
      <stop offset="0" stop-color="#7c3aed" stop-opacity="0.5"/>
      <stop offset="1" stop-color="#7c3aed" stop-opacity="0"/>
    </radialGradient>
  </defs>
  <g clip-path="url(#clip1)">
    <rect width="400" height="866" fill="url(#bg1)"/>
    <rect width="400" height="360" fill="url(#glow1)"/>
    <text x="30" y="52" fill="#fff" font-family="Arial, sans-serif" font-size="15" font-weight="700">9:41</text>
    <rect x="336" y="42" width="18" height="12" rx="3" fill="#fff" opacity="0.5"/>
    <rect x="360" y="40" width="26" height="14" rx="3" fill="#fff" opacity="0.85"/>

    <text x="30" y="116" fill="#fff" font-family="Arial, sans-serif" font-size="30" font-weight="800">Live</text>
    <circle cx="112" cy="106" r="6" fill="#22c55e"/>
    <rect x="300" y="90" width="70" height="28" rx="14" fill="#7c3aed" fill-opacity="0.25"/>
    <text x="335" y="109" fill="#c4b5fd" font-family="Arial, sans-serif" font-size="13" font-weight="700" text-anchor="middle">TODAY</text>

    <rect x="24" y="146" width="352" height="210" rx="26" fill="#fff" fill-opacity="0.05" stroke="#a78bfa" stroke-opacity="0.2"/>
    <rect x="44" y="168" width="90" height="22" rx="11" fill="#7c3aed" fill-opacity="0.3"/>
    <text x="89" y="184" fill="#ddd6fe" font-family="Arial, sans-serif" font-size="12" font-weight="700" text-anchor="middle">MATCHDAY</text>
    <circle cx="96" cy="250" r="34" fill="url(#acc1)"/>
    <circle cx="304" cy="250" r="34" fill="#fff" fill-opacity="0.12"/>
    <text x="200" y="248" fill="#fff" font-family="Arial, sans-serif" font-size="44" font-weight="800" text-anchor="middle">2-1</text>
    <rect x="170" y="272" width="60" height="26" rx="13" fill="#22c55e" fill-opacity="0.2"/>
    <text x="200" y="290" fill="#4ade80" font-family="Arial, sans-serif" font-size="14" font-weight="800" text-anchor="middle">67'</text>
    <text x="96" y="312" fill="#fff" opacity="0.8" font-family="Arial, sans-serif" font-size="14" font-weight="600" text-anchor="middle">HOME</text>
    <text x="304" y="312" fill="#fff" opacity="0.8" font-family="Arial, sans-serif" font-size="14" font-weight="600" text-anchor="middle">AWAY</text>

    <rect x="24" y="376" width="352" height="70" rx="20" fill="#fff" fill-opacity="0.04"/>
    <circle cx="60" cy="411" r="18" fill="#fff" fill-opacity="0.12"/>
    <circle cx="120" cy="411" r="18" fill="#fff" fill-opacity="0.08"/>
    <rect x="176" y="401" width="44" height="20" rx="8" fill="#fff" fill-opacity="0.14"/>
    <rect x="300" y="399" width="56" height="24" rx="12" fill="#7c3aed" fill-opacity="0.28"/>

    <rect x="24" y="458" width="352" height="70" rx="20" fill="#fff" fill-opacity="0.04"/>
    <circle cx="60" cy="493" r="18" fill="#fff" fill-opacity="0.1"/>
    <circle cx="120" cy="493" r="18" fill="#fff" fill-opacity="0.12"/>
    <rect x="176" y="483" width="44" height="20" rx="8" fill="#fff" fill-opacity="0.14"/>
    <rect x="300" y="481" width="56" height="24" rx="12" fill="#fff" fill-opacity="0.12"/>

    <rect x="24" y="540" width="352" height="70" rx="20" fill="#fff" fill-opacity="0.04"/>
    <circle cx="60" cy="575" r="18" fill="#fff" fill-opacity="0.12"/>
    <circle cx="120" cy="575" r="18" fill="#fff" fill-opacity="0.08"/>
    <rect x="176" y="565" width="44" height="20" rx="8" fill="#fff" fill-opacity="0.14"/>
    <rect x="300" y="563" width="56" height="24" rx="12" fill="#fff" fill-opacity="0.12"/>

    <rect x="24" y="792" width="352" height="60" rx="22" fill="#fff" fill-opacity="0.06"/>
    <circle cx="72" cy="822" r="8" fill="url(#acc1)"/>
    <circle cx="144" cy="822" r="7" fill="#fff" opacity="0.28"/>
    <circle cx="216" cy="822" r="7" fill="#fff" opacity="0.28"/>
    <circle cx="288" cy="822" r="7" fill="#fff" opacity="0.28"/>
    <circle cx="352" cy="822" r="7" fill="#fff" opacity="0.28"/>
  </g>
</svg>
