<svg preserveAspectRatio="none" overflow="visible" style="display: block;" width="38" height="38" viewBox="0 0 38 38" fill="none" xmlns="http://www.w3.org/2000/svg">
<g id="selfhst:snapchat" clip-path="url(#clip0_0_51)">
<path id="Vector" d="M0.0148437 28.3367C0.0371094 29.1828 0.0445312 30.0289 0.185547 30.8676C0.333984 31.7582 0.549219 32.6191 0.964844 33.4281C1.52148 34.5191 2.28594 35.4395 3.25078 36.1891C3.94102 36.7309 4.69805 37.1539 5.53672 37.4285C6.75391 37.8219 8.01562 37.9703 9.29219 37.9777C10.0863 37.9852 10.8879 38 11.682 38C17.4711 37.9777 23.2602 38.0445 29.0492 37.9629C29.8137 37.9555 30.5707 37.859 31.3277 37.718C32.775 37.4508 34.0516 36.8348 35.1426 35.8625C36.4191 34.727 37.2727 33.3391 37.666 31.6617C37.9184 30.5633 37.9852 29.45 37.9926 28.3367V28.1141C37.9926 28.025 37.9629 9.14375 37.9555 8.89883C37.948 8.21602 37.8961 7.5332 37.7699 6.85781C37.6141 6.03398 37.3914 5.23242 36.998 4.49023C36.5824 3.70352 36.0629 2.99844 35.4172 2.38242C34.4301 1.43984 33.2945 0.764453 31.966 0.415625C30.7711 0.0964844 29.5465 0.0222656 28.3145 0.0296875C28.3145 0.0296875 28.307 0.0148438 28.307 0.00742187H9.68555V0.0296875C8.98789 0.0445313 8.29023 0.0371094 7.59258 0.126172C6.83555 0.207813 6.07852 0.348828 5.35859 0.616016C4.22305 1.03906 3.23594 1.69219 2.39727 2.56055C1.44727 3.54766 0.771875 4.69062 0.415625 6.02656C0.0964844 7.21406 0.0296875 8.42383 0.0296875 9.64844" fill="#FFFC00"/>
<path id="Vector_2" d="M19.1707 32.0625C19.0891 32.0625 19.0148 32.0625 18.9629 32.0551C18.9184 32.0625 18.8738 32.0625 18.8219 32.0625C17.1668 32.0625 16.0609 31.2758 15.0812 30.5855C14.3836 30.0883 13.723 29.6207 12.9437 29.4945C12.5652 29.4352 12.1867 29.398 11.823 29.398C11.1625 29.398 10.643 29.502 10.2645 29.5762C10.0344 29.6207 9.82656 29.6578 9.6707 29.6578C9.50742 29.6578 9.30703 29.6207 9.22539 29.3387C9.15859 29.116 9.11406 28.9008 9.06953 28.693C8.9582 28.1734 8.87656 27.8543 8.67617 27.8246C6.59805 27.5055 5.37344 27.0305 5.12852 26.459C5.10625 26.3996 5.09141 26.3402 5.08398 26.2809C5.07656 26.1102 5.19531 25.9617 5.36602 25.932C7.01367 25.6574 8.4832 24.7891 9.73008 23.3418C10.6949 22.2211 11.1699 21.1449 11.2145 21.0262C11.2145 21.0187 11.2219 21.0188 11.2219 21.0113C11.4594 20.5215 11.5113 20.1059 11.3629 19.7645C11.0957 19.1336 10.2051 18.8516 9.61875 18.666C9.47031 18.6215 9.33672 18.577 9.22539 18.5324C8.70586 18.3246 7.85234 17.8941 7.96367 17.293C8.04531 16.8551 8.62422 16.5508 9.0918 16.5508C9.21797 16.5508 9.33672 16.573 9.4332 16.6176C9.96016 16.8625 10.4352 16.9887 10.8434 16.9887C11.348 16.9887 11.593 16.7957 11.6523 16.7438C11.6375 16.4766 11.6227 16.1871 11.6004 15.9125C11.4816 14.0199 11.3332 11.6598 11.9344 10.3016C13.7379 6.24922 17.5676 5.9375 18.7031 5.9375C18.7328 5.9375 19.193 5.93008 19.193 5.93008H19.2598C20.3953 5.93008 24.2324 6.2418 26.0359 10.2941C26.6371 11.6449 26.4887 14.0125 26.3699 15.9051L26.3625 15.9941C26.3477 16.2539 26.3328 16.4988 26.318 16.7289C26.3773 16.7809 26.6 16.959 27.0527 16.9738C27.4387 16.959 27.8914 16.8328 28.3812 16.6027C28.5371 16.5285 28.7004 16.5137 28.8191 16.5137C28.9898 16.5137 29.168 16.5508 29.3164 16.6102H29.3238C29.7395 16.7586 30.0141 17.0555 30.0215 17.3672C30.0289 17.6566 29.8137 18.0945 28.7523 18.5102C28.641 18.5547 28.5074 18.5992 28.359 18.6437C27.7727 18.8293 26.8895 19.1113 26.6148 19.7422C26.4664 20.0836 26.5184 20.5066 26.7559 20.9891C26.7559 20.9965 26.7633 20.9965 26.7633 21.0039C26.8375 21.1746 28.6262 25.2492 32.6117 25.9098C32.7824 25.9395 32.9012 26.0879 32.8937 26.2586C32.8937 26.318 32.8789 26.3773 32.8492 26.4441C32.6043 27.0156 31.3797 27.4832 29.3016 27.8023C29.1086 27.832 29.027 28.1512 28.9156 28.6633C28.8711 28.8785 28.8191 29.0863 28.7598 29.3016C28.7004 29.5094 28.5668 29.6059 28.3516 29.6059H28.3219C28.1809 29.6059 27.9805 29.5836 27.7281 29.5316C27.2902 29.4426 26.793 29.3684 26.1695 29.3684C25.8059 29.3684 25.4273 29.398 25.0488 29.4648C24.277 29.591 23.6164 30.0586 22.9187 30.5559C21.9391 31.2758 20.8258 32.0625 19.1707 32.0625Z" fill="white"/>
<path id="Vector_3" d="M19.2672 6.27148C20.3359 6.27148 24.0098 6.56094 25.7391 10.4426C26.3105 11.7191 26.1621 14.0348 26.0434 15.8977C26.0285 16.1945 26.0063 16.4766 25.9914 16.7512L25.984 16.8699L26.0656 16.959C26.0953 16.9961 26.3922 17.3004 27.0527 17.3301H27.0676C27.5055 17.3152 27.9953 17.1816 28.5297 16.9293C28.6113 16.8922 28.7152 16.8773 28.8266 16.8773C28.9527 16.8773 29.0863 16.8996 29.1977 16.9441L29.2125 16.9516C29.4945 17.048 29.6875 17.2336 29.6949 17.4043C29.6949 17.5008 29.6281 17.8422 28.6336 18.2281C28.5371 18.2652 28.4109 18.3098 28.2625 18.3543C27.6168 18.5621 26.6445 18.8664 26.318 19.6383C26.1324 20.0762 26.1844 20.5883 26.4664 21.1672C26.5852 21.4418 28.4258 25.5906 32.5672 26.2734C32.5672 26.2957 32.5598 26.318 32.5523 26.3402C32.4855 26.5035 32.0328 27.075 29.257 27.5055C28.8191 27.5723 28.7152 28.0621 28.5891 28.6262C28.5445 28.8266 28.5 29.0344 28.4332 29.2422C28.4109 29.309 28.4109 29.309 28.3441 29.309H28.3145C28.1883 29.309 28.0027 29.2867 27.7875 29.2422C27.3941 29.168 26.8523 29.0715 26.1621 29.0715C25.7762 29.0715 25.3828 29.1086 24.982 29.168C24.1285 29.309 23.4383 29.7988 22.7109 30.3184C21.7312 31.016 20.7145 31.7285 19.1633 31.7285C19.0965 31.7285 19.0297 31.7285 18.9629 31.7211H18.9332C18.8961 31.7211 18.859 31.7285 18.8145 31.7285C17.2633 31.7285 16.2465 31.0086 15.2668 30.3184C14.532 29.7988 13.8418 29.309 12.9957 29.168C12.5949 29.1012 12.2016 29.0715 11.8156 29.0715C11.1254 29.0715 10.5836 29.1754 10.1902 29.257C9.975 29.3016 9.78945 29.3387 9.66328 29.3387C9.55937 29.3387 9.55938 29.3313 9.53711 29.257C9.47773 29.0418 9.42578 28.834 9.38125 28.6336C9.25508 28.0695 9.15117 27.5797 8.71328 27.5129C5.9375 27.0824 5.49219 26.5109 5.41797 26.3477C5.41055 26.318 5.40313 26.3031 5.40313 26.2809C9.54453 25.598 11.3852 21.4492 11.5039 21.1746C11.7859 20.5957 11.8379 20.0836 11.6523 19.6457C11.3258 18.8738 10.3535 18.5621 9.70781 18.3617C9.55938 18.3172 9.4332 18.2727 9.33672 18.2355C8.49805 17.9016 8.2457 17.575 8.28281 17.3672C8.32734 17.1371 8.72813 16.8996 9.08438 16.8996C9.16602 16.8996 9.23281 16.9145 9.28477 16.9367C9.85625 17.2039 10.3758 17.3375 10.8359 17.3375C11.5559 17.3375 11.875 17.0035 11.9121 16.9664L11.9938 16.8773L11.9863 16.7586C11.9715 16.484 11.9566 16.202 11.9344 15.9051C11.8156 14.0422 11.6746 11.7266 12.2387 10.45C13.968 6.5832 17.6195 6.28633 18.7031 6.28633C18.7328 6.28633 19.2004 6.27891 19.2004 6.27891C19.2301 6.27148 19.2449 6.27148 19.2672 6.27148ZM19.2672 5.60352H19.193C19.0148 5.60352 18.7328 5.61094 18.7031 5.61094C18.0723 5.61094 16.8031 5.7 15.4449 6.30117C14.6656 6.64258 13.968 7.11016 13.3668 7.68164C12.6469 8.36445 12.068 9.20313 11.6301 10.1754C10.9918 11.6004 11.1477 14.0051 11.2664 15.9422C11.2813 16.15 11.2961 16.3652 11.3035 16.573C11.207 16.6176 11.0586 16.6621 10.8359 16.6621C10.4797 16.6621 10.0492 16.5508 9.5668 16.3207C9.42578 16.2539 9.2625 16.2242 9.08438 16.2242C8.79492 16.2242 8.49063 16.3059 8.23086 16.4617C7.89688 16.6547 7.68906 16.9293 7.62969 17.2336C7.59258 17.434 7.59258 17.8348 8.03789 18.2355C8.28281 18.4582 8.63906 18.666 9.09922 18.8441C9.21797 18.8887 9.36641 18.9406 9.51484 18.9852C10.0418 19.1559 10.8434 19.4082 11.0512 19.898C11.1551 20.143 11.1105 20.477 10.9176 20.8703C10.9102 20.8777 10.9102 20.8926 10.9027 20.9C10.8508 21.0113 10.398 22.043 9.47031 23.1266C8.94336 23.7426 8.35703 24.2621 7.74102 24.6555C6.98398 25.1453 6.16758 25.4645 5.30664 25.6055C4.97266 25.6574 4.72773 25.9617 4.75 26.3031C4.75742 26.3996 4.77969 26.4961 4.8168 26.5926C4.95039 26.9117 5.26953 27.1789 5.78164 27.4164C6.40508 27.7059 7.34766 27.9508 8.56484 28.1438C8.62422 28.2625 8.69102 28.5594 8.73555 28.7598C8.78008 28.975 8.83203 29.1977 8.89883 29.4277C8.97305 29.6801 9.16602 29.9844 9.66328 29.9844C9.84883 29.9844 10.0641 29.9398 10.3164 29.8953C10.6801 29.8211 11.1848 29.7246 11.8082 29.7246C12.157 29.7246 12.5133 29.7543 12.877 29.8137C13.5746 29.9324 14.1758 30.3555 14.8734 30.8453C15.8902 31.5652 17.048 32.3816 18.807 32.3816C18.8516 32.3816 18.9035 32.3816 18.948 32.3742C19.0074 32.3742 19.0816 32.3816 19.1559 32.3816C20.9223 32.3816 22.0727 31.5652 23.0895 30.8453C23.7871 30.3555 24.3883 29.9324 25.0859 29.8137C25.4496 29.7543 25.8059 29.7246 26.1547 29.7246C26.7559 29.7246 27.2234 29.7988 27.6465 29.8805C27.9211 29.9324 28.1363 29.9621 28.2996 29.9621H28.3293C28.693 29.9621 28.9602 29.7617 29.0641 29.4129C29.1309 29.1828 29.1828 28.9676 29.2273 28.7523C29.2719 28.5594 29.3387 28.2625 29.398 28.1438C30.6227 27.9508 31.5578 27.7059 32.1812 27.4164C32.6934 27.1789 33.0051 26.9117 33.1461 26.5926C33.1906 26.4961 33.2129 26.3996 33.2129 26.2957C33.2352 25.9543 32.9902 25.6574 32.6562 25.598C28.8488 24.9672 27.1344 21.0559 27.0602 20.8926C27.0527 20.8852 27.0527 20.8703 27.0453 20.8629C26.8523 20.4695 26.8078 20.143 26.9117 19.8906C27.1195 19.4008 27.9211 19.1484 28.448 18.9777C28.6039 18.9332 28.7449 18.8813 28.8637 18.8367C29.3832 18.6289 29.7543 18.4063 29.9992 18.1539C30.2887 17.8496 30.348 17.5602 30.348 17.3746C30.3406 16.9145 29.9918 16.5137 29.4352 16.3133C29.2496 16.2391 29.0344 16.1945 28.8117 16.1945C28.6633 16.1945 28.4406 16.2168 28.2328 16.3133C27.7875 16.5211 27.3867 16.6324 27.0453 16.6547C26.8598 16.6473 26.7336 16.6027 26.652 16.5656C26.6594 16.3875 26.6742 16.202 26.6891 16.0164L26.6965 15.9348C26.8152 13.9977 26.9711 11.593 26.3328 10.168C25.8949 9.18828 25.3086 8.34961 24.5887 7.6668C23.9875 7.09531 23.2824 6.63516 22.5031 6.28633C21.1672 5.69258 19.9055 5.60352 19.2672 5.60352Z" fill="#020202"/>
</g>
<defs>
<clipPath id="clip0_0_51">
<rect width="38" height="38" fill="white"/>
</clipPath>
</defs>
</svg>
