<svg preserveAspectRatio="none" overflow="visible" style="display: block;" width="16" height="16" viewBox="0 0 16 16" fill="none" xmlns="http://www.w3.org/2000/svg">
<g id="bx:euro">
<path id="Vector" d="M8.976 4C9.92933 4 10.8287 4.40867 11.5087 5.15067L12.492 4.24933C11.556 3.22867 10.3073 2.66667 8.976 2.66667C7.644 2.66667 6.396 3.22867 5.46133 4.25C4.99527 4.75872 4.63234 5.35303 4.39267 6H2.66667V7.33333H4.076C4.05067 7.55333 4.03333 7.77533 4.03333 8C4.03333 8.22467 4.05067 8.44667 4.076 8.66667H2.66667V10H4.39267C4.634 10.6467 4.99333 11.2407 5.46133 11.7507C6.396 12.7713 7.644 13.3333 8.976 13.3333C10.3073 13.3333 11.556 12.7713 12.4913 11.7507L11.508 10.8493C10.8287 11.5913 9.92933 12 8.976 12C8.02267 12 7.124 11.592 6.444 10.8493C6.21609 10.5922 6.02228 10.3067 5.86733 10H8.66667V8.66667H5.426C5.39267 8.448 5.36667 8.22667 5.36667 8C5.36667 7.77333 5.39267 7.552 5.426 7.33333H8.66667V6H5.86733C6.02733 5.69533 6.21133 5.40467 6.444 5.15067C7.124 4.40867 8.02267 4 8.976 4Z" fill="white"/>
</g>
</svg>
